<svg width="1365" height="3889" viewBox="0 0 1365 3889" fill="none" xmlns="http://www.w3.org/2000/svg">
<path d="M1351 24L1108 164C1108 164 916 279 896.5 338C877 397 845 559.5 845 559.5C845 559.5 845 692 876.5 749C908 806 999 881.5 1046.5 873.5C1094 865.5 1199 908.5 1220.5 800.5C1242 692.5 1221 684 1199 611C1199 611 1092 571.5 999 611C906 650.5 845 824 845 824C845 824 810 917 776 998C742 1079 740.283 1128.69 722.5 1180C704.717 1231.31 650 1278.5 608.5 1310C567 1341.5 491.5 1374 442 1397.5C392.5 1421 319.5 1431 236.5 1466.5C153.5 1502 74 1636.5 74 1636.5C74 1636.5 13.5 1764.5 31 1875.5C48.5 1986.5 117.5 2051.5 117.5 2051.5C117.5 2051.5 183 2130.3 268 2140.5C353 2150.7 425 2192 478.5 2215.5C532 2239 562.5 2370 558.5 2435C554.5 2500 525 2599 457.5 2634.5C390 2670 268 2677.5 268 2677.5C268 2677.5 107.5 2637.5 74 2558.5C40.5 2479.5 40.5 2426.5 74 2361C107.5 2295.5 196.5 2233 216 2215.5C235.5 2198 329 2120.5 525 2107C721 2093.5 803.5 2188.5 803.5 2188.5C803.5 2188.5 894 2308.5 1038.5 2399.5C1183 2490.5 1189.5 2483 1213 2519C1236.5 2555 1309.5 2721.5 1309.5 2721.5C1309.5 2721.5 1331 2954.5 1278 3047.5C1225 3140.5 1206 3130 1155 3164C1104 3198 987.5 3164 922 3277C856.5 3390 889.547 3343.5 803.5 3437C717.453 3530.5 731 3534.5 691 3589C651 3643.5 643.5 3861 691 3861" stroke="url(#paint0_linear_19_9)" stroke-width="55"/>
<defs>
<linearGradient id="paint0_linear_19_9" x1="689.412" y1="24" x2="689.412" y2="3861" gradientUnits="userSpaceOnUse">
<stop stop-color="#FAF7E6"/>
<stop offset="0.235577" stop-color="#FDBEFF"/>
<stop offset="0.451923" stop-color="#A4C1FF"/>
<stop offset="0.629808" stop-color="#AEA8F8"/>
<stop offset="0.831731" stop-color="#7158C0"/>
<stop offset="1" stop-color="#2400B2"/>
</linearGradient>
</defs>
</svg>
